<svg id="full-wheel" xmlns="http://www.w3.org/2000/svg" width="15" height="15" viewBox="0 0 11.595 11.56">
  <path id="wheel" d="M10.8,9.881a.9.9,0,1,0,.9.9A.895.895,0,0,0,10.8,9.881Zm0,1.284a.387.387,0,0,1-.387-.385.387.387,0,0,1,.773,0A.387.387,0,0,1,10.8,11.165ZM10.8,5a5.78,5.78,0,1,0,5.8,5.78A5.8,5.8,0,0,0,10.8,5Zm0,11.046A5.266,5.266,0,1,1,16.08,10.78,5.281,5.281,0,0,1,10.8,16.046Zm0-9.762a4.5,4.5,0,1,0,4.509,4.5A4.507,4.507,0,0,0,10.8,6.284Zm3.891,3.609H12.447L12.4,9.8l1.121-1.939A3.949,3.949,0,0,1,14.689,9.894ZM10.8,6.8a4.011,4.011,0,0,1,1.185.18L10.862,8.917h-.116L9.625,6.978A3.863,3.863,0,0,1,10.8,6.8ZM8.079,7.864,9.2,9.8l-.052.09H6.907A3.949,3.949,0,0,1,8.079,7.864Zm-1.172,3.8H9.149l.052.09L8.079,13.7A3.949,3.949,0,0,1,6.907,11.666Zm3.891,3.1a4.011,4.011,0,0,1-1.185-.18l1.121-1.939h.116l1.121,1.939A3.863,3.863,0,0,1,10.8,14.762ZM13.516,13.7,12.4,11.756l.052-.09h2.242A3.949,3.949,0,0,1,13.516,13.7Zm1.263-2.543H12.292a.25.25,0,0,0-.219.128l-.206.347a.233.233,0,0,0,0,.257L13.1,14.017a1.277,1.277,0,0,1-.219.141l-.219.128a1.144,1.144,0,0,1-.219.1L11.21,12.257a.25.25,0,0,0-.219-.128h-.412a.249.249,0,0,0-.219.128L9.123,14.389c-.077-.039-.142-.064-.219-.1l-.219-.128c-.077-.051-.142-.09-.219-.141L9.7,11.884a.233.233,0,0,0,0-.257L9.5,11.281a.266.266,0,0,0-.219-.128H6.817c0-.077-.013-.167-.013-.244v-.257c0-.077.013-.167.013-.244H9.29a.25.25,0,0,0,.219-.128l.206-.347a.233.233,0,0,0,0-.257L8.479,7.53A1.277,1.277,0,0,1,8.7,7.389L8.9,7.273a1.144,1.144,0,0,1,.219-.1L10.36,9.316a.25.25,0,0,0,.219.128h.412a.25.25,0,0,0,.219-.128l1.237-2.145c.077.039.142.064.219.1l.206.116c.077.051.142.09.219.141L11.854,9.675a.233.233,0,0,0,0,.257l.206.347a.266.266,0,0,0,.219.128h2.474a1.55,1.55,0,0,1,.013.244v.257a.758.758,0,0,1,.013.244Z" transform="translate(-5 -5)" fill="#ffb019"/>
  <g id="Path_99" data-name="Path 99" fill="none">
    <path d="M5.8,0A5.78,5.78,0,1,1,0,5.78,5.789,5.789,0,0,1,5.8,0Z" stroke="none"/>
    <path d="M 5.797684669494629 1.370002746582031 C 3.356254577636719 1.370002746582031 1.370004653930664 3.348262786865234 1.370004653930664 5.779882907867432 C 1.370004653930664 8.211503028869629 3.356254577636719 10.18976306915283 5.797684669494629 10.18976306915283 C 8.239114761352539 10.18976306915283 10.22536468505859 8.211503028869629 10.22536468505859 5.779882907867432 C 10.22536468505859 3.348262786865234 8.239114761352539 1.370002746582031 5.797684669494629 1.370002746582031 M 5.797684669494629 2.86102294921875e-06 C 8.999654769897461 2.86102294921875e-06 11.59536457061768 2.587742805480957 11.59536457061768 5.779882907867432 C 11.59536457061768 8.972023010253906 8.999654769897461 11.55976295471191 5.797684669494629 11.55976295471191 C 2.595714569091797 11.55976295471191 4.76837158203125e-06 8.972023010253906 4.76837158203125e-06 5.779882907867432 C 4.76837158203125e-06 2.587742805480957 2.595714569091797 2.86102294921875e-06 5.797684669494629 2.86102294921875e-06 Z" stroke="none" fill="#ffb019"/>
  </g>
  <line id="Line_24" data-name="Line 24" x1="0.018" y2="9.245" transform="translate(8.101 1.617) rotate(30)" fill="none" stroke="#ffb019" stroke-width="1.5"/>
  <path id="Path_100" data-name="Path 100" d="M0,0,.018,9.245" transform="translate(3.479 1.626) rotate(-30)" fill="none" stroke="#ffb019" stroke-width="1.5"/>
  <path id="Path_98" data-name="Path 98" d="M0,0V9.276" transform="translate(10.436 5.78) rotate(90)" fill="none" stroke="#ffb019" stroke-width="1.5"/>
  <circle id="Ellipse_15" data-name="Ellipse 15" cx="0.445" cy="0.445" r="0.445" transform="translate(5.353 5.335)" fill="#fff"/>
</svg>
